<?xml version="1.0" encoding="utf-8"?>
<!-- Generator: Adobe Illustrator 27.3.1, SVG Export Plug-In . SVG Version: 6.00 Build 0)  -->
<svg version="1.1" id="Layer_1" xmlns="http://www.w3.org/2000/svg" xmlns:xlink="http://www.w3.org/1999/xlink" x="0px" y="0px"
	 viewBox="0 0 800 800" style="enable-background:new 0 0 800 800;" xml:space="preserve">
<style type="text/css">
	.st0{fill:#FF5100;}
	.st1{fill:#FFFFFF;}
	.st2{fill:#E1D4C0;}
</style>
<g id="Coding" transform="translate(-80.251 -390.392)">
	<g id="Group_30">
		<g id="Group_29">
			<g id="Group_28">
				<g id="Group_27">
					<path id="Path_64" class="st0" d="M880.3,473.4v502.2c-0.1,44.4-36.1,80.4-80.5,80.5H632l11,71.3h14.7
						c16.7,0,30.2,13.5,30.2,30.2c0,16.7-13.5,30.2-30.2,30.2H302.8c-16.7,0-30.2-13.5-30.2-30.2c0-16.7,13.5-30.2,30.2-30.2h14.7
						l11-71.3H160.8c-44.4-0.1-80.4-36.1-80.5-80.5V473.4c0.1-44.4,36.1-80.4,80.5-80.5h639C844.2,392.9,880.2,429,880.3,473.4z
						 M819.9,975.6V894H140.6v81.6c0.1,11.1,9.1,20,20.1,20.1h639C810.8,995.6,819.7,986.7,819.9,975.6L819.9,975.6z M819.9,833.7
						V473.4c-0.1-11.1-9.1-20-20.1-20.1h-639c-11.1,0.1-20,9.1-20.1,20.1v360.3H267l-42-12.6c-12.8-3.8-21.6-15.6-21.5-29v-68.4
						c0-13.3,8.7-25.1,21.5-29l55.4-16.6c0.6-1.7,1.3-3.3,2.1-5l-27.5-51c-6.3-11.7-4.2-26.2,5.2-35.6l48.4-48.4
						c9.4-9.4,23.9-11.6,35.6-5.2l51,27.5c1.7-0.8,3.3-1.4,5-2.1l16.6-55.4c3.8-12.8,15.6-21.6,29-21.5h68.4
						c13.4,0,25.2,8.7,29,21.5l16.6,55.4c1.7,0.7,3.3,1.3,5,2.1l51-27.5c11.7-6.3,26.2-4.2,35.6,5.2l48.4,48.5
						c9.4,9.4,11.6,23.9,5.2,35.6l-27.4,51c0.7,1.6,1.4,3.3,2,4.9l55.4,16.6c12.8,3.9,21.5,15.6,21.5,29v68.4
						c0,13.4-8.7,25.1-21.5,29l-42,12.6L819.9,833.7z M696.6,769.7v-23.5l-48.5-14.6c-9.6-2.8-17.2-10.2-20.1-19.8
						c-2.8-8.8-6.3-17.3-10.6-25.5c-4.7-8.8-4.7-19.5,0.1-28.3l24.1-44.7l-16.7-16.7l-44.7,24c-8.8,4.8-19.4,4.8-28.3,0.1
						c-8.2-4.2-16.7-7.8-25.5-10.6c-9.6-2.9-17-10.5-19.8-20.1L492,541.5h-23.5L453.9,590c-2.8,9.6-10.3,17.2-19.9,20.1
						c-8.7,2.8-17.2,6.4-25.4,10.7c-8.9,4.6-19.5,4.6-28.4-0.2l-44.7-24l-16.6,16.7l24.1,44.6c4.8,8.8,4.8,19.5,0.1,28.4
						c-4.3,8.2-7.8,16.7-10.6,25.5c-3,9.5-10.5,17-20.1,19.8l-48.5,14.6v23.5l48.5,14.6c9.6,2.9,17.1,10.4,20.1,19.9
						c2.8,8.7,6.3,17.1,10.6,25.2c0.7,1.4,1.2,2.8,1.6,4.2h56.6c-41.9-43.6-40.6-113,3-154.9c43.6-41.9,113-40.6,154.9,3
						c40.8,42.4,40.8,109.5,0,151.9h56.5c0.5-1.4,1-2.7,1.6-4.1c4.3-8.1,7.9-16.6,10.7-25.3c2.9-9.6,10.5-17.1,20.1-19.9
						L696.6,769.7z M581.9,1127.5l-11.1-71.4H389.6l-11,71.3L581.9,1127.5z M529.5,757.9c0-27.2-22-49.2-49.2-49.2
						c-27.2,0-49.2,22-49.2,49.2c0,27.2,22,49.2,49.2,49.2c0,0,0,0,0,0C507.4,807,529.4,785,529.5,757.9L529.5,757.9z"/>
					<path id="Path_66" class="st1" d="M696.6,746.1v23.5l-48.5,14.6c-9.6,2.8-17.2,10.3-20.1,19.9c-2.8,8.7-6.4,17.2-10.7,25.3
						c-0.6,1.4-1.1,2.7-1.6,4.1h-56.5c41.9-43.6,40.6-113-3-154.9c-43.6-41.9-113-40.6-154.9,3c-40.8,42.4-40.8,109.5,0,151.9h-56.6
						c-0.4-1.5-0.9-2.9-1.6-4.2c-4.2-8.1-7.8-16.5-10.6-25.2c-3-9.6-10.5-17-20.1-19.9l-48.5-14.6v-23.5l48.5-14.6
						c9.6-2.8,17.1-10.3,20.1-19.8c2.8-8.8,6.3-17.3,10.6-25.5c4.7-8.9,4.7-19.5-0.1-28.4l-24.1-44.6l16.6-16.7l44.7,24
						c8.8,4.8,19.5,4.8,28.4,0.2c8.1-4.3,16.6-7.8,25.4-10.7c9.6-2.9,17.1-10.5,19.9-20.1l14.6-48.5H492l14.6,48.5
						c2.8,9.6,10.2,17.2,19.8,20.1c8.8,2.8,17.3,6.3,25.5,10.6c8.8,4.7,19.5,4.7,28.3-0.1l44.7-24l16.7,16.7L617.5,658
						c-4.8,8.8-4.8,19.4-0.1,28.3c4.3,8.2,7.8,16.7,10.6,25.5c2.9,9.6,10.5,17,20.1,19.8L696.6,746.1z"/>
					<path id="Path_67" class="st2" d="M570.8,1056.1l11.1,71.3H378.6l11-71.3H570.8z"/>
					<path id="Path_69" class="st0" d="M501.6,923.5c11.8,11.8,11.8,30.9,0,42.7c-11.8,11.8-30.9,11.8-42.7,0
						c-11.8-11.8-11.8-30.9,0-42.7c0,0,0,0,0,0c5.7-5.5,13.4-8.5,21.3-8.4C488.2,915,495.9,918,501.6,923.5z"/>
					<path id="Path_70" class="st1" d="M501.6,966.3c11.8-11.8,11.8-30.9,0.1-42.7c0,0,0,0-0.1-0.1c-5.7-5.5-13.4-8.5-21.3-8.4V894
						h339.6v81.6c-0.1,11.1-9.1,20-20.1,20.1H480.2V975C488.2,975,495.9,971.9,501.6,966.3z"/>
					<path id="Path_71" class="st1" d="M480.2,995.8H160.8c-11.1-0.1-20-9.1-20.1-20.1V894h339.6v21.1c-7.9-0.2-15.6,2.8-21.3,8.4
						c-11.8,11.8-11.8,30.9,0,42.7c5.7,5.6,13.3,8.8,21.3,8.8V995.8z"/>
				</g>
			</g>
		</g>
	</g>
</g>
</svg>
