<?xml version="1.0" encoding="utf-8"?>
<!-- Generator: Adobe Illustrator 27.3.1, SVG Export Plug-In . SVG Version: 6.00 Build 0)  -->
<svg version="1.1" id="Layer_1" xmlns="http://www.w3.org/2000/svg" xmlns:xlink="http://www.w3.org/1999/xlink" x="0px" y="0px"
	 viewBox="0 0 800 800" style="enable-background:new 0 0 800 800;" xml:space="preserve">
<style type="text/css">
	.st0{fill:#FF5100;}
	.st1{fill:#FFFFFF;}
</style>
<g id="Web_design" transform="translate(-240.001 -233.142)">
	<g id="Group_20">
		<g id="Group_19">
			<g id="Group_18">
				<g id="Group_17">
					<path id="Path_36" class="st0" d="M1040,318.1v630c0,16.6-13.4,30-30,30H270c-16.6,0-30-13.4-30-30v-630c0-16.6,13.4-30,30-30
						l0,0h740C1026.6,288.1,1040,301.6,1040,318.1L1040,318.1z M980,918.1v-430H300v430H980z M980,428.1v-80H300v80H980z"/>
					<path id="Path_37" class="st0" d="M929.8,590.5v121.2c0,16.6-13.4,30-30,30H778.6c-16.6,0-30-13.4-30-30V590.5
						c0-16.6,13.4-30,30-30h121.2C916.4,560.5,929.8,574,929.8,590.5C929.8,590.5,929.8,590.5,929.8,590.5z M869.8,681.7v-61.2
						h-61.2v61.2H869.8z"/>
					<path id="Path_38" class="st0" d="M899.8,788.1c16.6,0,30,13.4,30,30s-13.4,30-30,30H778.6c-16.6,0-30-13.4-30-30
						s13.4-30,30-30H899.8z"/>
					<rect id="Rectangle_7" x="808.6" y="620.5" class="st1" width="61.2" height="61.2"/>
					<path id="Path_39" class="st0" d="M730.6,590.5v121.2c0,16.6-13.4,30-30,30H579.4c-16.6,0-30-13.4-30-30V590.5
						c0-16.6,13.4-30,30-30h121.2C717.2,560.5,730.6,574,730.6,590.5C730.6,590.5,730.6,590.5,730.6,590.5z M670.6,681.7v-61.2
						h-61.2v61.2H670.6z"/>
					<path id="Path_40" class="st0" d="M700.6,788.1c16.6,0,30,13.4,30,30s-13.4,30-30,30H579.4c-16.6,0-30-13.4-30-30
						s13.4-30,30-30H700.6z"/>
					<rect id="Rectangle_8" x="609.4" y="620.5" class="st1" width="61.2" height="61.2"/>
					<path id="Path_42" class="st0" d="M531.4,590.5v121.2c0,16.6-13.4,30-30,30H380.1c-16.6,0-30-13.4-30-30V590.5
						c0-16.6,13.4-30,30-30h121.3C518,560.5,531.4,574,531.4,590.5C531.4,590.5,531.4,590.5,531.4,590.5z M471.4,681.7v-61.2h-61.3
						v61.2H471.4z"/>
					<path id="Path_43" class="st0" d="M501.4,788.1c16.6,0,30,13.4,30,30s-13.4,30-30,30H380.1c-16.6,0-30-13.4-30-30
						s13.4-30,30-30H501.4z"/>
					<rect id="Rectangle_9" x="410.1" y="620.5" class="st1" width="61.3" height="61.2"/>
					<path id="Path_44" class="st0" d="M431.5,366.9c11.7,11.7,11.7,30.7,0,42.4c-11.7,11.7-30.7,11.7-42.4,0
						c-11.7-11.7-11.7-30.7,0-42.4c0,0,0,0,0,0C401,355.8,419.6,355.8,431.5,366.9z"/>
					<path id="Path_45" class="st0" d="M361.5,366.9c11.7,11.7,11.7,30.7,0,42.4c-11.7,11.7-30.7,11.7-42.4,0
						c-11.7-11.7-11.7-30.7,0-42.4c0,0,0,0,0,0C331,355.8,349.6,355.8,361.5,366.9z"/>
					<path id="Path_46" class="st1" d="M361.5,409.3c11.7-11.7,11.7-30.6,0.1-42.3c0,0,0,0-0.1-0.1c-11.9-11.2-30.5-11.2-42.4,0
						c-12.1,11.3-12.8,30.3-1.5,42.4c11.3,12.1,30.3,12.8,42.4,1.5C360.5,410.4,361,409.9,361.5,409.3z M389.1,366.9
						c-11.7,11.7-11.7,30.7,0,42.4s30.7,11.7,42.4,0c11.7-11.7,11.7-30.7,0-42.4c0,0,0,0,0,0C419.6,355.8,401,355.8,389.1,366.9
						L389.1,366.9z M980,428.1H300v-80h680V428.1z"/>
				</g>
			</g>
		</g>
	</g>
</g>
</svg>
