<?xml version="1.0" encoding="utf-8"?>
<!-- Generator: Adobe Illustrator 27.3.1, SVG Export Plug-In . SVG Version: 6.00 Build 0)  -->
<svg version="1.1" id="Layer_1" xmlns="http://www.w3.org/2000/svg" xmlns:xlink="http://www.w3.org/1999/xlink" x="0px" y="0px"
	 viewBox="0 0 800 800" style="enable-background:new 0 0 800 800;" xml:space="preserve">
<style type="text/css">
	.st0{fill:#FF5100;}
	.st1{fill:#FFFFFF;}
</style>
<g id="Idea" transform="translate(-560.03 -229.971)">
	<g id="Group_26">
		<g id="Group_25">
			<g id="Group_24">
				<g id="Group_23">
					<path id="Path_50" class="st0" d="M1354.7,502.3V1000c0,16.6-13.4,30-30,30H731.7c-91.8-0.1-166.3-74.5-166.4-166.4v-437
						c0-94.9,77.4-166.5,179.9-166.5c16.6,0,30,13.4,30,30v182.2h54.2c23.2-119.1,138.5-196.9,257.7-173.7
						c87.9,17.1,156.6,85.8,173.7,173.7h64.1C1341.3,472.3,1354.7,485.7,1354.7,502.3C1354.7,502.3,1354.7,502.3,1354.7,502.3z
						 M1294.8,970V532.3H1264c-5.5,70.1-44.5,133.2-104.6,169.6v58.7c0,16.6-13.4,30-30,30H960.7c-16.5,0.1-29.9-13.3-30-29.8
						c0-0.1,0-0.1,0-0.2v-58.7c-60.2-36.4-99.1-99.5-104.6-169.6h-51v194.9c0,16.6-13.4,30-30,30c-69.4,0-119.9,44.8-119.9,106.4
						c0.1,58.7,47.7,106.3,106.4,106.4H1294.8z M1116,657.3c79-39.2,111.3-135.1,72.1-214.1S1053,331.9,974,371.1
						c-79,39.2-111.3,135.1-72.1,214.1c15.5,31.3,40.8,56.6,72.1,72.1c10.2,5.1,16.7,15.5,16.7,26.9v46.4h24.4V548.2h-40.5
						c-16.6,0-30-13.4-30-30c0-16.6,13.4-30,30-30h140.9c16.6,0,30,13.4,30,30c0,16.6-13.4,30-30,30H1075v182.3h24.4v-46.4
						C1099.4,672.8,1105.8,662.3,1116,657.3z M715.2,699.3V323.1c-53.6,10.9-89.9,51.1-89.9,103.5v310.9
						C651.2,716.9,682.3,703.7,715.2,699.3z"/>
					<path id="Path_51" class="st0" d="M1303.6,405.2c6.3,15.3-1,32.8-16.3,39c0,0-0.1,0-0.1,0c-3.6,1.5-7.4,2.3-11.3,2.3
						c-16.6,0-30-13.4-30-29.9c0-16.6,13.4-30,29.9-30C1288,386.6,1298.9,394,1303.6,405.2L1303.6,405.2z"/>
					<path id="Path_52" class="st0" d="M1242.4,312.7c11.6,11.8,11.5,30.8-0.3,42.4c-11.8,11.6-30.8,11.5-42.4-0.3
						c-11.6-11.8-11.5-30.8,0.3-42.4c0,0,0,0,0,0c11.7-11.6,30.6-11.5,42.3,0.2C1242.4,312.7,1242.4,312.7,1242.4,312.7z"/>
					<path id="Path_53" class="st1" d="M1204.8,514.3c0.1,60.7-34.3,116.2-88.8,143c-10.2,5.1-16.6,15.5-16.6,26.9v46.4H1075V548.2
						h40.5c16.6,0,30-13.4,30-30c0-16.6-13.4-30-30-30H974.6c-16.6,0-30,13.4-30,30c0,16.6,13.4,30,30,30h40.5v182.3h-24.4v-46.4
						c0-11.4-6.5-21.8-16.7-26.9c-79-39.3-111.2-135.1-71.9-214.1c39.3-79,135.1-111.2,214.1-71.9
						C1170.5,398.2,1204.9,453.6,1204.8,514.3L1204.8,514.3z"/>
					<path id="Path_54" class="st0" d="M1150.2,250.7c15.3,6.4,22.5,23.9,16.2,39.2c-4.6,11.1-15.5,18.4-27.6,18.5
						c-16.5,0.1-29.9-13.2-30-29.7c0-4,0.8-8,2.3-11.7C1117.4,251.7,1134.9,244.4,1150.2,250.7z"/>
					<path id="Path_55" class="st0" d="M1115,808c16.6,0,30,13.4,30,30s-13.4,30-30,30H975.1c-16.6,0-30-13.4-30-30s13.4-30,30-30
						H1115z"/>
					<path id="Path_57" class="st0" d="M1085,888c16.6,0,30,13.4,30,30c0,16.6-13.4,30-30,30h-79.9c-16.6,0-30-13.4-30-30
						c0-16.6,13.4-30,30-30H1085z"/>
					<path id="Path_58" class="st0" d="M1071.3,259.5c0.2,16.6-13,30.2-29.6,30.5h-0.4c-16.6,0-30-13.4-30-30c0-16.6,13.4-30,30-30
						C1057.7,230,1071.1,243.1,1071.3,259.5z"/>
					<path id="Path_60" class="st0" d="M971.8,269.1c6.8,15.1,0,32.9-15.1,39.7c-3.9,1.7-8.1,2.6-12.3,2.6c-16.6,0-30-13.5-29.9-30
						c0-16.6,13.5-30,30-29.9C956.3,251.4,967,258.3,971.8,269.1L971.8,269.1z"/>
					<path id="Path_61" class="st0" d="M884.3,317.2c12.1,11.3,12.8,30.3,1.5,42.4c-11.3,12.1-30.3,12.8-42.4,1.5
						c-12.1-11.3-12.8-30.3-1.5-42.4c0,0,0,0,0,0C853.2,306.6,872.2,305.9,884.3,317.2z"/>
					<path id="Path_62" class="st0" d="M822,395.4c15.5,5.8,23.4,23.1,17.6,38.6c-5.8,15.5-23.1,23.4-38.6,17.6
						c-15.5-5.8-23.4-23.1-17.6-38.6c0,0,0,0,0,0C789.3,397.5,806.5,389.7,822,395.4z"/>
				</g>
			</g>
		</g>
	</g>
</g>
</svg>
