<?xml version="1.0" encoding="utf-8"?>
<!-- Generator: Adobe Illustrator 27.3.1, SVG Export Plug-In . SVG Version: 6.00 Build 0)  -->
<svg version="1.1" id="Layer_1" xmlns="http://www.w3.org/2000/svg" xmlns:xlink="http://www.w3.org/1999/xlink" x="0px" y="0px"
	 viewBox="0 0 800 800" style="enable-background:new 0 0 800 800;" xml:space="preserve">
<style type="text/css">
	.st0{fill:#FF5100;}
	.st1{fill:#FFFFFF;}
</style>
<g id="App_design" transform="translate(-254.07 -70.142)">
	<g id="Group_6">
		<g id="Group_5">
			<g id="Group_4">
				<g id="Group_3">
					<path id="Path_4" class="st0" d="M919.1,150.1v640c-0.1,44.2-35.8,79.9-80,80h-370c-44.2-0.1-79.9-35.8-80-80v-640
						c0.1-44.2,35.8-79.9,80-80h370C883.2,70.2,919,106,919.1,150.1z M859.1,790.1v-80h-410v80c0.2,11,9,19.8,20,20h370
						C850.1,810,858.9,801.1,859.1,790.1z M859.1,650.1v-500c-0.1-11-9-19.9-20-20h-370c-11,0.2-19.8,9-20,20v500H859.1z"/>
					<path id="Path_5" class="st1" d="M859.1,150.1v500h-410v-500c0.2-11,9-19.8,20-20h370C850.1,130.3,858.9,139.2,859.1,150.1z
						 M814,555.1v-345c0-16.6-13.4-30-30-30H524.2c-16.6,0-30,13.4-30,30v345c0,16.6,13.4,30,30,30H784
						C800.5,585.1,814,571.7,814,555.1z"/>
					<path id="Path_6" class="st0" d="M814,210.1v345c0,16.6-13.4,30-30,30H524.2c-16.6,0-30-13.4-30-30v-345c0-16.6,13.4-30,30-30
						H784C800.5,180.1,814,193.6,814,210.1z M754,525.1v-70.9h-79.9v70.9H754z M754,394.2V240.1h-79.9v154.1H754z M614.1,525.1v-285
						h-59.9v285H614.1z"/>
					<rect id="Rectangle_3" x="674.1" y="454.2" class="st1" width="79.9" height="70.9"/>
					<path id="Path_7" class="st0" d="M654.1,733.3c15.7,0,28.4,12.7,28.4,28.4c0,15.7-12.7,28.4-28.4,28.4
						c-15.7,0-28.4-12.7-28.4-28.4c0,0,0,0,0,0C625.7,746.1,638.4,733.4,654.1,733.3C654,733.3,654.1,733.3,654.1,733.3z"/>
					<rect id="Rectangle_5" x="554.2" y="240.1" class="st1" width="59.9" height="285"/>
				</g>
			</g>
		</g>
	</g>
</g>
</svg>
